<?xml version="1.0" encoding="UTF-8"?>
<svg xmlns="http://www.w3.org/2000/svg" xmlns:xlink="http://www.w3.org/1999/xlink" width="199px" height="117px" viewBox="0 0 199 117" version="1.1">
<g id="surface1">
<path style=" stroke:none;fill-rule:nonzero;fill:rgb(100%,100%,100%);fill-opacity:1;" d="M 54.804688 45.464844 C 54.121094 44.664062 53.265625 44.035156 52.25 43.570312 C 51.226562 43.105469 50.046875 42.871094 48.691406 42.871094 C 47.320312 42.871094 46.035156 43.117188 44.839844 43.601562 C 43.640625 44.089844 42.558594 44.785156 41.585938 45.679688 C 40.609375 46.578125 39.769531 47.652344 39.0625 48.902344 C 38.351562 50.15625 37.789062 51.546875 37.367188 53.074219 L 56.800781 53.074219 C 56.820312 52.964844 56.839844 52.757812 56.851562 52.457031 C 56.859375 52.160156 56.867188 51.867188 56.867188 51.578125 C 56.867188 50.402344 56.695312 49.289062 56.351562 48.238281 C 56.007812 47.1875 55.492188 46.261719 54.804688 45.464844 Z M 54.804688 45.464844 "/>
<path style=" stroke:none;fill-rule:nonzero;fill:rgb(100%,100%,100%);fill-opacity:1;" d="M 91.601562 45.648438 C 90.824219 44.792969 89.882812 44.132812 88.777344 43.667969 C 87.667969 43.203125 86.417969 42.972656 85.023438 42.972656 C 83.183594 42.972656 81.476562 43.382812 79.90625 44.203125 C 78.332031 45.023438 76.972656 46.160156 75.820312 47.625 C 74.667969 49.085938 73.757812 50.832031 73.097656 52.859375 C 72.433594 54.886719 72.097656 57.109375 72.097656 59.523438 C 72.097656 61.03125 72.316406 62.414062 72.746094 63.679688 C 73.179688 64.941406 73.78125 66.019531 74.558594 66.917969 C 75.332031 67.816406 76.261719 68.511719 77.347656 69.011719 C 78.433594 69.511719 79.640625 69.761719 80.96875 69.761719 C 82.828125 69.761719 84.550781 69.324219 86.136719 68.449219 C 87.71875 67.574219 89.097656 66.375 90.269531 64.859375 C 91.445312 63.339844 92.363281 61.558594 93.027344 59.507812 C 93.691406 57.457031 94.023438 55.246094 94.023438 52.875 C 94.023438 51.34375 93.8125 49.972656 93.390625 48.75 C 92.972656 47.535156 92.378906 46.5 91.601562 45.648438 Z M 91.601562 45.648438 "/>
<path style=" stroke:none;fill-rule:nonzero;fill:rgb(100%,100%,100%);fill-opacity:1;" d="M 114.519531 29.136719 L 117.511719 14.804688 L 29.597656 14.804688 L 15.179688 83.714844 L 88.683594 83.714844 L 84.636719 102.195312 L 155.046875 102.195312 L 170.582031 29.136719 Z M 62.8125 53.558594 C 62.789062 54.035156 62.753906 54.523438 62.710938 55.019531 C 62.664062 55.519531 62.621094 56.007812 62.578125 56.484375 C 62.535156 56.957031 62.480469 57.363281 62.414062 57.695312 L 36.601562 57.695312 C 36.578125 58.007812 36.5625 58.304688 36.550781 58.59375 C 36.539062 58.882812 36.535156 59.179688 36.535156 59.488281 C 36.535156 61.328125 36.800781 62.894531 37.332031 64.191406 C 37.863281 65.488281 38.554688 66.546875 39.410156 67.367188 C 40.261719 68.1875 41.21875 68.78125 42.28125 69.144531 C 43.34375 69.511719 44.417969 69.695312 45.503906 69.695312 C 47.871094 69.695312 49.777344 69.28125 51.21875 68.464844 C 52.65625 67.644531 53.753906 66.539062 54.503906 65.140625 L 60.585938 65.140625 C 60.207031 66.515625 59.585938 67.800781 58.726562 68.996094 C 57.863281 70.191406 56.769531 71.230469 55.453125 72.105469 C 54.132812 72.980469 52.605469 73.667969 50.867188 74.164062 C 49.128906 74.664062 47.21875 74.914062 45.136719 74.914062 C 43.144531 74.914062 41.261719 74.585938 39.492188 73.933594 C 37.71875 73.28125 36.175781 72.316406 34.855469 71.039062 C 33.539062 69.765625 32.496094 68.199219 31.734375 66.339844 C 30.96875 64.476562 30.585938 62.339844 30.585938 59.921875 C 30.585938 56.621094 31.042969 53.613281 31.964844 50.898438 C 32.882812 48.183594 34.160156 45.859375 35.800781 43.917969 C 37.4375 41.980469 39.402344 40.476562 41.695312 39.414062 C 43.988281 38.351562 46.496094 37.820312 49.222656 37.820312 C 51.058594 37.820312 52.800781 38.140625 54.457031 38.785156 C 56.105469 39.429688 57.550781 40.363281 58.789062 41.59375 C 60.027344 42.824219 61.015625 44.335938 61.746094 46.128906 C 62.476562 47.925781 62.84375 49.988281 62.84375 52.3125 C 62.84375 52.667969 62.832031 53.082031 62.8125 53.558594 Z M 89.941406 74.285156 L 90.96875 69.398438 L 90.4375 69.398438 C 89.132812 71.105469 87.492188 72.449219 85.523438 73.4375 C 83.550781 74.421875 81.425781 74.917969 79.144531 74.917969 C 77.351562 74.917969 75.667969 74.578125 74.09375 73.902344 C 72.519531 73.226562 71.140625 72.257812 69.960938 70.992188 C 68.773438 69.730469 67.835938 68.199219 67.152344 66.40625 C 66.464844 64.613281 66.121094 62.605469 66.121094 60.390625 C 66.121094 58.242188 66.339844 56.183594 66.769531 54.226562 C 67.203125 52.265625 67.816406 50.449219 68.613281 48.773438 C 69.410156 47.101562 70.367188 45.585938 71.484375 44.238281 C 72.605469 42.886719 73.84375 41.734375 75.207031 40.78125 C 76.570312 39.828125 78.039062 39.097656 79.625 38.585938 C 81.207031 38.078125 82.863281 37.824219 84.59375 37.824219 C 85.875 37.824219 87.097656 38 88.261719 38.355469 C 89.425781 38.707031 90.476562 39.199219 91.417969 39.832031 C 92.359375 40.464844 93.167969 41.226562 93.84375 42.125 C 94.519531 43.023438 95.015625 44.003906 95.324219 45.066406 L 95.855469 45.066406 L 100.273438 24.222656 L 106.085938 24.222656 L 95.457031 74.285156 Z M 147.503906 92.777344 L 134.632812 92.777344 L 126.21875 74.296875 L 125.167969 74.296875 L 109.59375 92.777344 L 96.800781 92.777344 L 121.074219 64.003906 L 109.828125 38.554688 L 122.945312 38.554688 L 130.421875 56.074219 L 131.121094 56.074219 L 145.265625 38.554688 L 158.230469 38.554688 L 135.0625 65.277344 Z M 147.503906 92.777344 "/>
<path style=" stroke:none;fill-rule:nonzero;fill:rgb(100%,100%,100%);fill-opacity:1;" d="M 178.078125 38.234375 C 177.445312 38.234375 176.847656 38.113281 176.292969 37.875 C 175.738281 37.640625 175.253906 37.308594 174.832031 36.890625 C 174.410156 36.46875 174.078125 35.980469 173.84375 35.421875 C 173.609375 34.867188 173.488281 34.273438 173.488281 33.636719 C 173.488281 33 173.605469 32.40625 173.84375 31.851562 C 174.078125 31.296875 174.410156 30.808594 174.832031 30.386719 C 175.253906 29.964844 175.738281 29.636719 176.292969 29.398438 C 176.847656 29.164062 177.445312 29.042969 178.078125 29.042969 C 178.714844 29.042969 179.3125 29.160156 179.867188 29.398438 C 180.421875 29.636719 180.910156 29.96875 181.332031 30.386719 C 181.753906 30.808594 182.082031 31.296875 182.316406 31.851562 C 182.554688 32.410156 182.675781 33 182.675781 33.636719 C 182.675781 34.273438 182.558594 34.871094 182.316406 35.421875 C 182.082031 35.980469 181.75 36.46875 181.332031 36.890625 C 180.910156 37.3125 180.425781 37.640625 179.867188 37.875 C 179.3125 38.113281 178.714844 38.234375 178.078125 38.234375 Z M 178.078125 37.378906 C 178.769531 37.378906 179.394531 37.210938 179.960938 36.871094 C 180.523438 36.535156 180.976562 36.085938 181.3125 35.519531 C 181.648438 34.953125 181.816406 34.328125 181.816406 33.636719 C 181.816406 32.949219 181.648438 32.320312 181.3125 31.757812 C 180.976562 31.191406 180.523438 30.742188 179.960938 30.402344 C 179.394531 30.066406 178.769531 29.898438 178.078125 29.898438 C 177.390625 29.898438 176.765625 30.066406 176.199219 30.402344 C 175.632812 30.742188 175.183594 31.191406 174.847656 31.757812 C 174.511719 32.320312 174.339844 32.949219 174.339844 33.636719 C 174.339844 34.328125 174.511719 34.953125 174.847656 35.519531 C 175.183594 36.085938 175.632812 36.535156 176.199219 36.871094 C 176.765625 37.210938 177.390625 37.378906 178.078125 37.378906 Z M 176.523438 35.707031 L 176.523438 31.464844 L 178.554688 31.464844 C 178.769531 31.464844 178.976562 31.515625 179.179688 31.617188 C 179.382812 31.71875 179.546875 31.867188 179.679688 32.066406 C 179.8125 32.261719 179.878906 32.503906 179.878906 32.792969 C 179.878906 33.082031 179.8125 33.328125 179.671875 33.539062 C 179.539062 33.746094 179.363281 33.90625 179.15625 34.019531 C 178.949219 34.132812 178.730469 34.1875 178.507812 34.1875 L 176.9375 34.1875 L 176.9375 33.605469 L 178.3125 33.605469 C 178.507812 33.605469 178.683594 33.535156 178.839844 33.394531 C 178.992188 33.253906 179.070312 33.054688 179.070312 32.796875 C 179.070312 32.53125 178.992188 32.339844 178.839844 32.222656 C 178.683594 32.109375 178.515625 32.050781 178.328125 32.050781 L 177.261719 32.050781 L 177.261719 35.714844 L 176.523438 35.714844 Z M 178.992188 33.734375 L 180.050781 35.707031 L 179.222656 35.707031 L 178.195312 33.734375 Z M 178.992188 33.734375 "/>
</g>
</svg>
