<?xml version="1.0" standalone="no"?>
<!DOCTYPE svg PUBLIC "-//W3C//DTD SVG 1.0//EN" "http://www.w3.org/TR/2001/REC-SVG-20010904/DTD/svg10.dtd">
<svg xmlns="http://www.w3.org/2000/svg" xmlns:xlink="http://www.w3.org/1999/xlink" id="body_1" width="199" height="112">

<g transform="matrix(0.35993347 0 0 0.35993347 -0 0.08074556)">
	<g>
        <path d="M140.99 109.01C 138.55 106.170006 135.51001 103.93 131.89 102.270004C 128.26 100.62 124.05 99.79 119.24 99.79C 114.35 99.79 109.78 100.66 105.53 102.39C 101.27 104.12 97.409996 106.59 93.95 109.78C 90.479996 112.97 87.49 116.79 84.97 121.24C 82.450005 125.689995 80.44 130.64 78.94 136.06999L78.94 136.06999L148.08 136.06999C 148.16 135.68 148.22 134.95 148.26 133.87999C 148.29999 132.81999 148.31999 131.76999 148.31999 130.74998C 148.31999 126.569984 147.70999 122.609985 146.48999 118.86999C 145.26 115.14 143.43 111.85 140.99 109.01z" stroke="none" fill="#02262B" fill-rule="nonzero" />
        <path d="M271.9 109.66C 269.13998 106.630005 265.79 104.28001 261.85 102.630005C 257.91 100.97 253.46 100.15 248.49 100.15C 241.95001 100.15 235.88 101.61 230.29001 104.520004C 224.69 107.44 219.85 111.490005 215.75002 116.69C 211.65001 121.89 208.42001 128.1 206.06001 135.3C 203.70001 142.51001 202.51001 150.41 202.51001 159C 202.51001 164.36 203.28001 169.28 204.82 173.77C 206.36 178.26001 208.5 182.1 211.26001 185.29001C 214.02 188.48001 217.33002 190.96 221.19 192.74C 225.05 194.51001 229.35 195.40001 234.07 195.40001C 240.69 195.40001 246.81001 193.85 252.45001 190.73001C 258.08002 187.62001 262.99002 183.36002 267.16 177.97002C 271.34 172.57002 274.61002 166.23001 276.97 158.94002C 279.33 151.65002 280.52 143.79002 280.52 135.36002C 280.52 129.92001 279.77 125.040016 278.27 120.70001C 276.78 116.38 274.66 112.7 271.9 109.66z" stroke="none" fill="#02262B" fill-rule="nonzero" />
        <path d="M353.43 50.96L364.08 0L51.3 0L0 245.01L261.52 245.01L247.12 310.72L497.63 310.72L552.89 50.95999L353.43 50.95999L353.43 50.96zM169.47 137.79C 169.39 139.48999 169.27 141.21999 169.11 142.98999C 168.95 144.76 168.79 146.49998 168.64 148.18999C 168.48 149.87999 168.29 151.31999 168.05 152.49998L168.05 152.49998L76.22 152.49998C 76.14 153.60999 76.08 154.66998 76.04 155.68999C 76 156.71999 75.98 157.77998 75.98 158.87999C 75.98 165.41998 76.93 170.98999 78.82 175.59999C 80.71 180.20999 83.17 183.96999 86.21 186.88998C 89.24 189.80998 92.65 191.90999 96.43 193.20999C 100.21 194.51 104.03 195.15999 107.89 195.15999C 116.32 195.15999 123.1 193.69998 128.22 190.79C 133.34 187.87999 137.24 183.93999 139.92 178.97L139.92 178.97L161.55 178.97C 160.21 183.86 158 188.43001 154.93001 192.68001C 151.86 196.93001 147.98001 200.62001 143.29001 203.73001C 138.6 206.84001 133.16 209.29001 126.98001 211.06001C 120.79001 212.83002 114.000015 213.72002 106.59001 213.72002C 99.500015 213.72002 92.80001 212.56001 86.500015 210.23001C 80.20001 207.91 74.70001 204.48001 70.01002 199.95001C 65.320015 195.42001 61.620018 189.85 58.900017 183.23001C 56.180016 176.61002 54.820015 169.01001 54.820015 160.42001C 54.820015 148.68001 56.450016 137.98001 59.720016 128.33002C 62.990017 118.680016 67.540016 110.41002 73.37002 103.51002C 79.20002 96.62002 86.19002 91.280014 94.35002 87.500015C 102.50002 83.72002 111.43002 81.83002 121.120026 81.83002C 127.66003 81.83002 133.86003 82.97002 139.74002 85.26002C 145.61002 87.55002 150.75002 90.87002 155.16002 95.250015C 159.57002 99.62002 163.08002 105.000015 165.68002 111.38001C 168.28003 117.76001 169.58002 125.09001 169.58002 133.36002C 169.59 134.62 169.55 136.1 169.47 137.79zM265.99 211.48L269.65 194.11L267.75998 194.11C 263.11 200.18001 257.27997 204.96 250.26997 208.47C 243.25998 211.97 235.68997 213.73 227.57997 213.73C 221.19997 213.73 215.20998 212.53 209.60997 210.12C 204.00996 207.72 199.10997 204.26999 194.89996 199.78C 190.67996 195.29 187.34996 189.85 184.90996 183.47C 182.46996 177.09 181.24995 169.96 181.24995 162.08C 181.24995 154.44 182.01996 147.13 183.54996 140.16C 185.08995 133.19 187.26996 126.73 190.10995 120.78001C 192.94995 114.83001 196.34996 109.450005 200.32996 104.65001C 204.30995 99.84001 208.71996 95.75001 213.56996 92.36001C 218.41997 88.97001 223.64996 86.37001 229.28996 84.560005C 234.91997 82.75001 240.80997 81.840004 246.95996 81.840004C 251.52997 81.840004 255.87996 82.47 260.01996 83.73C 264.15997 84.990005 267.89996 86.740005 271.24997 88.990005C 274.59998 91.240005 277.46997 93.950005 279.87997 97.14001C 282.27997 100.33001 284.03998 103.82001 285.13998 107.600006L285.13998 107.600006L287.03 107.600006L302.75 33.490005L323.43 33.490005L285.61 211.49L265.99 211.49zM470.79 277.23L425 277.23L395.06 211.52002L391.32 211.52002L335.91 277.23L290.4 277.23L376.75 174.93001L336.75 84.44001L383.41 84.44001L410.02002 146.74L412.50003 146.74L462.82004 84.44L508.95004 84.44L426.52005 179.45999L470.79 277.23z" stroke="none" fill="#02262B" fill-rule="nonzero" />
	</g>
</g>
</svg>